<svg width="12" height="12" viewBox="0 0 12 12" fill="none" xmlns="http://www.w3.org/2000/svg">
<path fill-rule="evenodd" clip-rule="evenodd" d="M5.25928 5.25958V0.814959C5.25928 0.40586 5.59092 0.0742188 6.00002 0.0742188C6.40912 0.0742188 6.74076 0.40586 6.74076 0.814959V5.25958H11.1853C11.5944 5.25958 11.9261 5.59122 11.9261 6.00032C11.9261 6.40942 11.5944 6.74106 11.1853 6.74106H6.74076V11.1853C6.74076 11.5944 6.40912 11.9261 6.00002 11.9261C5.59092 11.9261 5.25928 11.5944 5.25928 11.1853V6.74106H0.81496C0.40586 6.74106 0.0742188 6.40942 0.0742188 6.00032C0.0742188 5.59122 0.40586 5.25958 0.81496 5.25958H5.25928Z" fill="#D8DBE0"/>
<mask id="mask0" mask-type="alpha" maskUnits="userSpaceOnUse" x="0" y="0" width="12" height="12">
<path fill-rule="evenodd" clip-rule="evenodd" d="M5.25928 5.25958V0.814959C5.25928 0.40586 5.59092 0.0742188 6.00002 0.0742188C6.40912 0.0742188 6.74076 0.40586 6.74076 0.814959V5.25958H11.1853C11.5944 5.25958 11.9261 5.59122 11.9261 6.00032C11.9261 6.40942 11.5944 6.74106 11.1853 6.74106H6.74076V11.1853C6.74076 11.5944 6.40912 11.9261 6.00002 11.9261C5.59092 11.9261 5.25928 11.5944 5.25928 11.1853V6.74106H0.81496C0.40586 6.74106 0.0742188 6.40942 0.0742188 6.00032C0.0742188 5.59122 0.40586 5.25958 0.81496 5.25958H5.25928Z" fill="white"/>
</mask>
<g mask="url(#mask0)">
</g>
</svg>
