<svg width="10" height="16" viewBox="0 0 10 16" fill="none" xmlns="http://www.w3.org/2000/svg">
<path fill-rule="evenodd" clip-rule="evenodd" d="M9.5075 8.84373C9.19942 9.20315 8.65831 9.24478 8.29889 8.9367L4.85671 5.98626L1.41453 8.9367C1.05511 9.24477 0.513993 9.20315 0.205917 8.84373C-0.102159 8.48431 -0.0605344 7.94319 0.298887 7.63512L4.29889 4.20654C4.61988 3.93141 5.09354 3.93141 5.41453 4.20654L9.41453 7.63512C9.77395 7.94319 9.81558 8.48431 9.5075 8.84373Z" fill="#74777A"/>
<path fill-rule="evenodd" clip-rule="evenodd" d="M4.85672 16C4.38334 16 3.99958 15.6162 3.99958 15.1429L3.99958 4.85714C3.99958 4.38376 4.38334 4 4.85673 4C5.33011 4 5.71387 4.38376 5.71387 4.85714L5.71387 15.1429C5.71387 15.6162 5.33011 16 4.85672 16Z" fill="#74777A"/>
<path fill-rule="evenodd" clip-rule="evenodd" d="M9.5075 4.84373C9.19942 5.20315 8.65831 5.24478 8.29889 4.9367L4.85671 1.98626L1.41453 4.9367C1.05511 5.24477 0.513993 5.20315 0.205917 4.84373C-0.102159 4.48431 -0.0605344 3.94319 0.298887 3.63512L4.29889 0.206545C4.61988 -0.0685901 5.09354 -0.0685901 5.41453 0.206545L9.41453 3.63512C9.77395 3.94319 9.81558 4.48431 9.5075 4.84373Z" fill="#74777A"/>
</svg>
