<svg width="20" height="20" viewBox="0 0 20 20" fill="none" xmlns="http://www.w3.org/2000/svg">
<path fill-rule="evenodd" clip-rule="evenodd" d="M11.6666 1.6665H8.33325C7.87301 1.6665 7.49992 2.0396 7.49992 2.49984V17.4998C7.49992 17.9601 7.87301 18.3332 8.33325 18.3332H11.6666C12.1268 18.3332 12.4999 17.9601 12.4999 17.4998V2.49984C12.4999 2.0396 12.1268 1.6665 11.6666 1.6665ZM10.8333 16.6665H9.16659V3.33317H10.8333V16.6665ZM14.9999 5.83317H18.3333C18.7935 5.83317 19.1666 6.20627 19.1666 6.6665V17.4998C19.1666 17.9601 18.7935 18.3332 18.3333 18.3332H14.9999C14.5397 18.3332 14.1666 17.9601 14.1666 17.4998V6.6665C14.1666 6.20627 14.5397 5.83317 14.9999 5.83317ZM4.99992 9.99984H1.66659C1.20635 9.99984 0.833252 10.3729 0.833252 10.8332V17.4998C0.833252 17.9601 1.20635 18.3332 1.66659 18.3332H4.99992C5.46016 18.3332 5.83325 17.9601 5.83325 17.4998V10.8332C5.83325 10.3729 5.46016 9.99984 4.99992 9.99984ZM15.8333 7.49984V16.6665H17.4999V7.49984H15.8333ZM4.16658 16.6665H2.49992V11.6665H4.16658V16.6665Z" fill="#2871F5"/>
<mask id="mask0" mask-type="alpha" maskUnits="userSpaceOnUse" x="0" y="1" width="20" height="18">
<path fill-rule="evenodd" clip-rule="evenodd" d="M11.6666 1.6665H8.33325C7.87301 1.6665 7.49992 2.0396 7.49992 2.49984V17.4998C7.49992 17.9601 7.87301 18.3332 8.33325 18.3332H11.6666C12.1268 18.3332 12.4999 17.9601 12.4999 17.4998V2.49984C12.4999 2.0396 12.1268 1.6665 11.6666 1.6665ZM10.8333 16.6665H9.16659V3.33317H10.8333V16.6665ZM14.9999 5.83317H18.3333C18.7935 5.83317 19.1666 6.20627 19.1666 6.6665V17.4998C19.1666 17.9601 18.7935 18.3332 18.3333 18.3332H14.9999C14.5397 18.3332 14.1666 17.9601 14.1666 17.4998V6.6665C14.1666 6.20627 14.5397 5.83317 14.9999 5.83317ZM4.99992 9.99984H1.66659C1.20635 9.99984 0.833252 10.3729 0.833252 10.8332V17.4998C0.833252 17.9601 1.20635 18.3332 1.66659 18.3332H4.99992C5.46016 18.3332 5.83325 17.9601 5.83325 17.4998V10.8332C5.83325 10.3729 5.46016 9.99984 4.99992 9.99984ZM15.8333 7.49984V16.6665H17.4999V7.49984H15.8333ZM4.16658 16.6665H2.49992V11.6665H4.16658V16.6665Z" fill="white"/>
</mask>
<g mask="url(#mask0)">
<rect width="20" height="20" fill="#2871F5"/>
</g>
</svg>
