<svg width="18" height="18" viewBox="0 0 18 18" fill="none" xmlns="http://www.w3.org/2000/svg">
<path fill-rule="evenodd" clip-rule="evenodd" d="M0.75 9C0.75 13.5563 4.44365 17.25 9 17.25C13.5563 17.25 17.25 13.5563 17.25 9C17.25 4.44365 13.5563 0.75 9 0.75C4.44365 0.75 0.75 4.44365 0.75 9ZM15.75 9C15.75 12.7279 12.7279 15.75 9 15.75C5.27208 15.75 2.25 12.7279 2.25 9C2.25 5.27208 5.27208 2.25 9 2.25C12.7279 2.25 15.75 5.27208 15.75 9ZM8.25 6V9C8.25 9.41421 8.58579 9.75 9 9.75C9.41421 9.75 9.75 9.41421 9.75 9V6C9.75 5.58579 9.41421 5.25 9 5.25C8.58579 5.25 8.25 5.58579 8.25 6ZM9.53033 10.7197C9.82322 11.0126 9.82322 11.4874 9.53033 11.7803C9.23744 12.0732 8.76256 12.0732 8.46967 11.7803C8.17678 11.4874 8.17678 11.0126 8.46967 10.7197C8.76256 10.4268 9.23744 10.4268 9.53033 10.7197Z" fill="black"/>
<mask id="mask0" mask-type="alpha" maskUnits="userSpaceOnUse" x="0" y="0" width="18" height="18">
<path fill-rule="evenodd" clip-rule="evenodd" d="M0.75 9C0.75 13.5563 4.44365 17.25 9 17.25C13.5563 17.25 17.25 13.5563 17.25 9C17.25 4.44365 13.5563 0.75 9 0.75C4.44365 0.75 0.75 4.44365 0.75 9ZM15.75 9C15.75 12.7279 12.7279 15.75 9 15.75C5.27208 15.75 2.25 12.7279 2.25 9C2.25 5.27208 5.27208 2.25 9 2.25C12.7279 2.25 15.75 5.27208 15.75 9ZM8.25 6V9C8.25 9.41421 8.58579 9.75 9 9.75C9.41421 9.75 9.75 9.41421 9.75 9V6C9.75 5.58579 9.41421 5.25 9 5.25C8.58579 5.25 8.25 5.58579 8.25 6ZM9.53033 10.7197C9.82322 11.0126 9.82322 11.4874 9.53033 11.7803C9.23744 12.0732 8.76256 12.0732 8.46967 11.7803C8.17678 11.4874 8.17678 11.0126 8.46967 10.7197C8.76256 10.4268 9.23744 10.4268 9.53033 10.7197Z" fill="white"/>
</mask>
<g mask="url(#mask0)">
<rect width="18" height="18" fill="#F6705E"/>
</g>
</svg>
