<svg width="14" height="14" viewBox="0 0 14 14" fill="none" xmlns="http://www.w3.org/2000/svg">
<path fill-rule="evenodd" clip-rule="evenodd" d="M7 5.93934L10.9697 1.96967C11.2626 1.67678 11.7374 1.67678 12.0303 1.96967C12.3232 2.26256 12.3232 2.73744 12.0303 3.03033L8.06066 7L12.0303 10.9697C12.3232 11.2626 12.3232 11.7374 12.0303 12.0303C11.7374 12.3232 11.2626 12.3232 10.9697 12.0303L7 8.06066L3.03033 12.0303C2.73744 12.3232 2.26256 12.3232 1.96967 12.0303C1.67678 11.7374 1.67678 11.2626 1.96967 10.9697L5.93934 7L1.96967 3.03033C1.67678 2.73744 1.67678 2.26256 1.96967 1.96967C2.26256 1.67678 2.73744 1.67678 3.03033 1.96967L7 5.93934Z" fill="#F6705E"/>
<mask id="mask0" mask-type="alpha" maskUnits="userSpaceOnUse" x="1" y="1" width="12" height="12">
<path fill-rule="evenodd" clip-rule="evenodd" d="M7 5.93934L10.9697 1.96967C11.2626 1.67678 11.7374 1.67678 12.0303 1.96967C12.3232 2.26256 12.3232 2.73744 12.0303 3.03033L8.06066 7L12.0303 10.9697C12.3232 11.2626 12.3232 11.7374 12.0303 12.0303C11.7374 12.3232 11.2626 12.3232 10.9697 12.0303L7 8.06066L3.03033 12.0303C2.73744 12.3232 2.26256 12.3232 1.96967 12.0303C1.67678 11.7374 1.67678 11.2626 1.96967 10.9697L5.93934 7L1.96967 3.03033C1.67678 2.73744 1.67678 2.26256 1.96967 1.96967C2.26256 1.67678 2.73744 1.67678 3.03033 1.96967L7 5.93934Z" fill="white"/>
</mask>
<g mask="url(#mask0)">
</g>
</svg>
