<svg width="20" height="20" viewBox="0 0 20 20" fill="none" xmlns="http://www.w3.org/2000/svg">
<path fill-rule="evenodd" clip-rule="evenodd" d="M0.833008 10.0002C0.833008 15.0628 4.93706 19.1668 9.99967 19.1668C15.0623 19.1668 19.1663 15.0628 19.1663 10.0002C19.1663 4.93755 15.0623 0.833496 9.99967 0.833496C4.93706 0.833496 0.833008 4.93755 0.833008 10.0002ZM17.4997 10.0002C17.4997 14.1423 14.1418 17.5002 9.99967 17.5002C5.85754 17.5002 2.49967 14.1423 2.49967 10.0002C2.49967 5.85803 5.85754 2.50016 9.99967 2.50016C14.1418 2.50016 17.4997 5.85803 17.4997 10.0002ZM9.99968 15.8335C6.77801 15.8335 4.16634 13.2218 4.16634 10.0002C4.16634 6.7785 6.77801 4.16683 9.99968 4.16683C13.2213 4.16683 15.833 6.7785 15.833 10.0002C15.833 13.2218 13.2213 15.8335 9.99968 15.8335ZM14.1663 10.0002C14.1663 12.3013 12.3009 14.1668 9.99967 14.1668C7.69849 14.1668 5.83301 12.3013 5.83301 10.0002C5.83301 7.69898 7.69849 5.8335 9.99967 5.8335C12.3009 5.8335 14.1663 7.69898 14.1663 10.0002ZM9.99967 12.5002C8.61896 12.5002 7.49967 11.3809 7.49967 10.0002C7.49967 8.61945 8.61896 7.50016 9.99967 7.50016C11.3804 7.50016 12.4997 8.61945 12.4997 10.0002C12.4997 11.3809 11.3804 12.5002 9.99967 12.5002ZM10.833 10.0002C10.833 10.4604 10.4599 10.8335 9.99968 10.8335C9.53944 10.8335 9.16634 10.4604 9.16634 10.0002C9.16634 9.53993 9.53944 9.16683 9.99968 9.16683C10.4599 9.16683 10.833 9.53993 10.833 10.0002Z" fill="white"/>
<mask id="mask0" mask-type="alpha" maskUnits="userSpaceOnUse" x="0" y="0" width="20" height="20">
<path fill-rule="evenodd" clip-rule="evenodd" d="M0.833008 10.0002C0.833008 15.0628 4.93706 19.1668 9.99967 19.1668C15.0623 19.1668 19.1663 15.0628 19.1663 10.0002C19.1663 4.93755 15.0623 0.833496 9.99967 0.833496C4.93706 0.833496 0.833008 4.93755 0.833008 10.0002ZM17.4997 10.0002C17.4997 14.1423 14.1418 17.5002 9.99967 17.5002C5.85754 17.5002 2.49967 14.1423 2.49967 10.0002C2.49967 5.85803 5.85754 2.50016 9.99967 2.50016C14.1418 2.50016 17.4997 5.85803 17.4997 10.0002ZM9.99968 15.8335C6.77801 15.8335 4.16634 13.2218 4.16634 10.0002C4.16634 6.7785 6.77801 4.16683 9.99968 4.16683C13.2213 4.16683 15.833 6.7785 15.833 10.0002C15.833 13.2218 13.2213 15.8335 9.99968 15.8335ZM14.1663 10.0002C14.1663 12.3013 12.3009 14.1668 9.99967 14.1668C7.69849 14.1668 5.83301 12.3013 5.83301 10.0002C5.83301 7.69898 7.69849 5.8335 9.99967 5.8335C12.3009 5.8335 14.1663 7.69898 14.1663 10.0002ZM9.99967 12.5002C8.61896 12.5002 7.49967 11.3809 7.49967 10.0002C7.49967 8.61945 8.61896 7.50016 9.99967 7.50016C11.3804 7.50016 12.4997 8.61945 12.4997 10.0002C12.4997 11.3809 11.3804 12.5002 9.99967 12.5002ZM10.833 10.0002C10.833 10.4604 10.4599 10.8335 9.99968 10.8335C9.53944 10.8335 9.16634 10.4604 9.16634 10.0002C9.16634 9.53993 9.53944 9.16683 9.99968 9.16683C10.4599 9.16683 10.833 9.53993 10.833 10.0002Z" fill="white"/>
</mask>
<g mask="url(#mask0)">
<rect width="20" height="20" fill="white"/>
</g>
</svg>
