<svg width="10" height="16" viewBox="0 0 10 16" fill="none" xmlns="http://www.w3.org/2000/svg">
<path fill-rule="evenodd" clip-rule="evenodd" d="M0.206367 7.15627C0.514443 6.79685 1.05556 6.75522 1.41498 7.0633L4.85716 10.0137L8.29934 7.0633C8.65876 6.75523 9.19987 6.79685 9.50795 7.15627C9.81603 7.51569 9.7744 8.05681 9.41498 8.36488L5.41498 11.7935C5.09399 12.0686 4.62033 12.0686 4.29934 11.7935L0.299337 8.36488C-0.0600852 8.05681 -0.101709 7.51569 0.206367 7.15627Z" fill="#74777A"/>
<path fill-rule="evenodd" clip-rule="evenodd" d="M4.85714 1.49868e-07C5.33053 2.32637e-07 5.71429 0.383756 5.71429 0.857143L5.71428 11.1429C5.71428 11.6162 5.33053 12 4.85714 12C4.38375 12 4 11.6162 4 11.1429L4 0.857143C4 0.383756 4.38376 6.7098e-08 4.85714 1.49868e-07Z" fill="#74777A"/>
<path fill-rule="evenodd" clip-rule="evenodd" d="M0.206367 11.1563C0.514443 10.7968 1.05556 10.7552 1.41498 11.0633L4.85716 14.0137L8.29934 11.0633C8.65876 10.7552 9.19987 10.7969 9.50795 11.1563C9.81603 11.5157 9.7744 12.0568 9.41498 12.3649L5.41498 15.7935C5.09399 16.0686 4.62033 16.0686 4.29934 15.7935L0.299337 12.3649C-0.0600852 12.0568 -0.101709 11.5157 0.206367 11.1563Z" fill="#74777A"/>
</svg>
