<svg width="10" height="12" viewBox="0 0 10 12" fill="none" xmlns="http://www.w3.org/2000/svg">
<path fill-rule="evenodd" clip-rule="evenodd" d="M9.79363 4.84373C9.48556 5.20315 8.94444 5.24478 8.58502 4.9367L5.14284 1.98626L1.70066 4.9367C1.34124 5.24477 0.800126 5.20315 0.49205 4.84373C0.183973 4.48431 0.225598 3.94319 0.58502 3.63512L4.58502 0.206545C4.90601 -0.0685901 5.37967 -0.0685901 5.70066 0.206545L9.70066 3.63512C10.0601 3.94319 10.1017 4.48431 9.79363 4.84373Z" fill="#74777A"/>
<path fill-rule="evenodd" clip-rule="evenodd" d="M5.14286 12C4.66947 12 4.28571 11.6162 4.28571 11.1429L4.28572 0.857142C4.28572 0.383756 4.66947 -1.06999e-06 5.14286 -1.02861e-06C5.61625 -9.87223e-07 6 0.383756 6 0.857142L6 11.1429C6 11.6162 5.61624 12 5.14286 12Z" fill="#74777A"/>
</svg>
