<svg width="20" height="20" viewBox="0 0 20 20" fill="none" xmlns="http://www.w3.org/2000/svg">
<path fill-rule="evenodd" clip-rule="evenodd" d="M15.7275 15.7272V10C15.7275 9.54817 16.0938 9.18186 16.5457 9.18186C16.9975 9.18186 17.3638 9.54817 17.3638 10V15.7272C17.3638 17.0828 16.2649 18.1817 14.9093 18.1817H3.45499C2.09941 18.1817 1.00049 17.0828 1.00049 15.7272V4.27286C1.00049 2.91728 2.09941 1.81836 3.45499 1.81836H12.4548C12.9067 1.81836 13.273 2.18467 13.273 2.63653C13.273 3.08839 12.9067 3.45469 12.4548 3.45469H3.45499C3.00313 3.45469 2.63682 3.821 2.63682 4.27286V15.7272C2.63682 16.1791 3.00313 16.5454 3.45499 16.5454H14.9093C15.3612 16.5454 15.7275 16.1791 15.7275 15.7272ZM7.30619 8.60333L9.18216 10.4793L17.6035 2.05799C17.923 1.73848 18.441 1.73848 18.7605 2.05799C19.08 2.37751 19.08 2.89554 18.7605 3.21506L9.76069 12.2149C9.44118 12.5344 8.92314 12.5344 8.60363 12.2149L6.14913 9.76039C5.82961 9.44088 5.82961 8.92285 6.14913 8.60333C6.46864 8.28382 6.98668 8.28382 7.30619 8.60333Z" fill="#74777A"/>
<mask id="mask0" mask-type="alpha" maskUnits="userSpaceOnUse" x="1" y="1" width="19" height="18">
<path fill-rule="evenodd" clip-rule="evenodd" d="M15.7275 15.7272V10C15.7275 9.54817 16.0938 9.18186 16.5457 9.18186C16.9975 9.18186 17.3638 9.54817 17.3638 10V15.7272C17.3638 17.0828 16.2649 18.1817 14.9093 18.1817H3.45499C2.09941 18.1817 1.00049 17.0828 1.00049 15.7272V4.27286C1.00049 2.91728 2.09941 1.81836 3.45499 1.81836H12.4548C12.9067 1.81836 13.273 2.18467 13.273 2.63653C13.273 3.08839 12.9067 3.45469 12.4548 3.45469H3.45499C3.00313 3.45469 2.63682 3.821 2.63682 4.27286V15.7272C2.63682 16.1791 3.00313 16.5454 3.45499 16.5454H14.9093C15.3612 16.5454 15.7275 16.1791 15.7275 15.7272ZM7.30619 8.60333L9.18216 10.4793L17.6035 2.05799C17.923 1.73848 18.441 1.73848 18.7605 2.05799C19.08 2.37751 19.08 2.89554 18.7605 3.21506L9.76069 12.2149C9.44118 12.5344 8.92314 12.5344 8.60363 12.2149L6.14913 9.76039C5.82961 9.44088 5.82961 8.92285 6.14913 8.60333C6.46864 8.28382 6.98668 8.28382 7.30619 8.60333Z" fill="white"/>
</mask>
<g mask="url(#mask0)">
<rect width="20" height="20" fill="#74777A"/>
</g>
</svg>
