<svg width="14" height="14" viewBox="0 0 14 14" fill="none" xmlns="http://www.w3.org/2000/svg">
	<path fill-rule="evenodd" clip-rule="evenodd" d="M0.963799 2.23659L11.7638 13.0366C12.1153 13.3881 12.6851 13.3881 13.0366 13.0366C13.3881 12.6851 13.3881 12.1153 13.0366 11.7638L2.23659 0.963799C1.88512 0.612327 1.31527 0.612327 0.963799 0.963799C0.612327 1.31527 0.612327 1.88512 0.963799 2.23659Z" fill="#74777A"/>
	<path fill-rule="evenodd" clip-rule="evenodd" d="M11.7638 0.963799L0.963799 11.7638C0.612327 12.1153 0.612327 12.6851 0.963799 13.0366C1.31527 13.3881 1.88512 13.3881 2.23659 13.0366L13.0366 2.23659C13.3881 1.88512 13.3881 1.31527 13.0366 0.963799C12.6851 0.612327 12.1153 0.612327 11.7638 0.963799Z" fill="#74777A"/>
</svg>
