<svg width="20" height="20" viewBox="0 0 20 20" fill="none" xmlns="http://www.w3.org/2000/svg">
<path fill-rule="evenodd" clip-rule="evenodd" d="M19.1667 10.8332C18.7064 10.8332 18.3333 10.4601 18.3333 9.99984V7.01168L11.8393 13.5058C11.5138 13.8312 10.9862 13.8312 10.6607 13.5058L7.08333 9.92835L1.42259 15.5891C1.09715 15.9145 0.569515 15.9145 0.244078 15.5891C-0.0813592 15.2637 -0.0813592 14.736 0.244078 14.4106L6.49408 8.16058C6.81951 7.83515 7.34715 7.83515 7.67259 8.16058L11.25 11.738L17.1548 5.83317H14.1667C13.7064 5.83317 13.3333 5.46007 13.3333 4.99984C13.3333 4.5396 13.7064 4.1665 14.1667 4.1665H19.1667C19.2797 4.1665 19.3874 4.18899 19.4857 4.22974C19.5839 4.2704 19.676 4.33068 19.7559 4.41058C19.8358 4.49048 19.8961 4.58256 19.9368 4.68085C19.9723 4.7666 19.994 4.85957 19.9989 4.95695C19.9996 4.97116 20 4.98545 20 4.99984C20 5.00014 20 5.00043 20 5.00073V9.99984C20 10.4601 19.6269 10.8332 19.1667 10.8332Z" fill="#2871F5"/>
<mask id="mask0" mask-type="alpha" maskUnits="userSpaceOnUse" x="0" y="4" width="20" height="12">
<path fill-rule="evenodd" clip-rule="evenodd" d="M19.1667 10.8332C18.7064 10.8332 18.3333 10.4601 18.3333 9.99984V7.01168L11.8393 13.5058C11.5138 13.8312 10.9862 13.8312 10.6607 13.5058L7.08333 9.92835L1.42259 15.5891C1.09715 15.9145 0.569515 15.9145 0.244078 15.5891C-0.0813592 15.2637 -0.0813592 14.736 0.244078 14.4106L6.49408 8.16058C6.81951 7.83515 7.34715 7.83515 7.67259 8.16058L11.25 11.738L17.1548 5.83317H14.1667C13.7064 5.83317 13.3333 5.46007 13.3333 4.99984C13.3333 4.5396 13.7064 4.1665 14.1667 4.1665H19.1667C19.2797 4.1665 19.3874 4.18899 19.4857 4.22974C19.5839 4.2704 19.676 4.33068 19.7559 4.41058C19.8358 4.49048 19.8961 4.58256 19.9368 4.68085C19.9723 4.7666 19.994 4.85957 19.9989 4.95695C19.9996 4.97116 20 4.98545 20 4.99984C20 5.00014 20 5.00043 20 5.00073V9.99984C20 10.4601 19.6269 10.8332 19.1667 10.8332Z" fill="white"/>
</mask>
<g mask="url(#mask0)">
<rect width="20" height="20" fill="#2871F5"/>
</g>
</svg>
