<svg width="20" height="20" viewBox="0 0 20 20" fill="none" xmlns="http://www.w3.org/2000/svg">
<path fill-rule="evenodd" clip-rule="evenodd" d="M0.833008 10.0002C0.833008 15.0628 4.93706 19.1668 9.99967 19.1668C15.0623 19.1668 19.1663 15.0628 19.1663 10.0002C19.1663 4.93755 15.0623 0.833496 9.99967 0.833496C4.93706 0.833496 0.833008 4.93755 0.833008 10.0002ZM17.4997 10.0002C17.4997 14.1423 14.1418 17.5002 9.99967 17.5002C5.85754 17.5002 2.49967 14.1423 2.49967 10.0002C2.49967 5.85803 5.85754 2.50016 9.99967 2.50016C14.1418 2.50016 17.4997 5.85803 17.4997 10.0002ZM9.16634 6.66683V10.0002C9.16634 10.4604 9.53944 10.8335 9.99968 10.8335C10.4599 10.8335 10.833 10.4604 10.833 10.0002V6.66683C10.833 6.20659 10.4599 5.8335 9.99968 5.8335C9.53944 5.8335 9.16634 6.20659 9.16634 6.66683ZM10.5889 11.9109C10.9144 12.2363 10.9144 12.764 10.5889 13.0894C10.2635 13.4149 9.73586 13.4149 9.41042 13.0894C9.08498 12.764 9.08498 12.2363 9.41042 11.9109C9.73586 11.5855 10.2635 11.5855 10.5889 11.9109Z" fill="white"/>
<mask id="mask0" mask-type="alpha" maskUnits="userSpaceOnUse" x="0" y="0" width="20" height="20">
<path fill-rule="evenodd" clip-rule="evenodd" d="M0.833008 10.0002C0.833008 15.0628 4.93706 19.1668 9.99967 19.1668C15.0623 19.1668 19.1663 15.0628 19.1663 10.0002C19.1663 4.93755 15.0623 0.833496 9.99967 0.833496C4.93706 0.833496 0.833008 4.93755 0.833008 10.0002ZM17.4997 10.0002C17.4997 14.1423 14.1418 17.5002 9.99967 17.5002C5.85754 17.5002 2.49967 14.1423 2.49967 10.0002C2.49967 5.85803 5.85754 2.50016 9.99967 2.50016C14.1418 2.50016 17.4997 5.85803 17.4997 10.0002ZM9.16634 6.66683V10.0002C9.16634 10.4604 9.53944 10.8335 9.99968 10.8335C10.4599 10.8335 10.833 10.4604 10.833 10.0002V6.66683C10.833 6.20659 10.4599 5.8335 9.99968 5.8335C9.53944 5.8335 9.16634 6.20659 9.16634 6.66683ZM10.5889 11.9109C10.9144 12.2363 10.9144 12.764 10.5889 13.0894C10.2635 13.4149 9.73586 13.4149 9.41042 13.0894C9.08498 12.764 9.08498 12.2363 9.41042 11.9109C9.73586 11.5855 10.2635 11.5855 10.5889 11.9109Z" fill="white"/>
</mask>
<g mask="url(#mask0)">
<rect width="20" height="20" fill="white"/>
</g>
</svg>
