<svg width="18" height="18" viewBox="0 0 18 18" fill="none" xmlns="http://www.w3.org/2000/svg">
<path fill-rule="evenodd" clip-rule="evenodd" d="M0 9C0 13.9706 4.02944 18 9 18C13.9706 18 18 13.9706 18 9C18 4.02944 13.9706 0 9 0C4.02944 0 0 4.02944 0 9ZM16.3636 9C16.3636 13.0668 13.0668 16.3636 9 16.3636C4.93318 16.3636 1.63636 13.0668 1.63636 9C1.63636 4.93318 4.93318 1.63636 9 1.63636C13.0668 1.63636 16.3636 4.93318 16.3636 9ZM7.36256 12.0321L4.33055 9.33884C4.01103 9.01932 4.01103 8.50128 4.33055 8.18176C4.65007 7.86224 5.16811 7.86224 5.48763 8.18176L7.90794 10.3316L12.2727 5.96691C12.5922 5.64739 13.1102 5.64739 13.4297 5.96691C13.7493 6.28643 13.7493 6.80448 13.4297 7.124L8.52147 12.0323C8.52122 12.0325 8.52097 12.0328 8.52072 12.033L8.52066 12.0331C8.5188 12.0349 8.51693 12.0368 8.51505 12.0386" fill="black"/>
<mask id="mask0" mask-type="alpha" maskUnits="userSpaceOnUse" x="0" y="0" width="18" height="18">
<path fill-rule="evenodd" clip-rule="evenodd" d="M0 9C0 13.9706 4.02944 18 9 18C13.9706 18 18 13.9706 18 9C18 4.02944 13.9706 0 9 0C4.02944 0 0 4.02944 0 9ZM16.3636 9C16.3636 13.0668 13.0668 16.3636 9 16.3636C4.93318 16.3636 1.63636 13.0668 1.63636 9C1.63636 4.93318 4.93318 1.63636 9 1.63636C13.0668 1.63636 16.3636 4.93318 16.3636 9ZM7.36256 12.0321L4.33055 9.33884C4.01103 9.01932 4.01103 8.50128 4.33055 8.18176C4.65007 7.86224 5.16811 7.86224 5.48763 8.18176L7.90794 10.3316L12.2727 5.96691C12.5922 5.64739 13.1102 5.64739 13.4297 5.96691C13.7493 6.28643 13.7493 6.80448 13.4297 7.124L8.52147 12.0323C8.52122 12.0325 8.52097 12.0328 8.52072 12.033L8.52066 12.0331C8.5188 12.0349 8.51693 12.0368 8.51505 12.0386" fill="white"/>
</mask>
<g mask="url(#mask0)">
<rect x="-0.818359" y="-0.818359" width="19.6364" height="19.6364" fill="#25C16F"/>
</g>
</svg>
