<svg width="20" height="20" viewBox="0 0 20 20" fill="none" xmlns="http://www.w3.org/2000/svg">
<path d="M18.1337 7.05419L7.30224 17.8857L8.57503 19.1585L19.4065 8.32698L18.1337 7.05419ZM7.30224 17.8857C7.35585 17.8321 7.43828 17.8321 7.49189 17.8857L6.21909 19.1585C6.86843 19.8078 7.92569 19.8078 8.57503 19.1585L7.30224 17.8857ZM7.49189 17.8857L2.01116 12.4049L0.73837 13.6777L6.21909 19.1585L7.49189 17.8857ZM2.01116 12.4049C2.06477 12.4585 2.06477 12.541 2.01116 12.5946L0.73837 11.3218C0.0890329 11.9711 0.0890329 13.0284 0.73837 13.6777L2.01116 12.4049ZM2.01116 12.5946L12.8426 1.76312L11.5698 0.490323L0.73837 11.3218L2.01116 12.5946ZM12.8426 1.76312C12.789 1.81672 12.7066 1.81672 12.653 1.76312L13.9258 0.490323C13.2764 -0.159014 12.2192 -0.159014 11.5698 0.490323L12.8426 1.76312ZM12.653 1.76312L18.1337 7.24384L19.4065 5.97105L13.9258 0.490323L12.653 1.76312ZM18.1337 7.24384C18.0814 7.1915 18.0843 7.10364 18.1337 7.05419L19.4065 8.32698C20.0517 7.68181 20.0654 6.62994 19.4065 5.97105L18.1337 7.24384ZM10.7467 9.15018C11.1191 9.52253 11.1191 10.1262 10.7467 10.4986L12.0195 11.7714C13.0948 10.6961 13.0948 8.95269 12.0195 7.87738L10.7467 9.15018ZM10.7467 10.4986C10.3744 10.871 9.77066 10.871 9.39831 10.4986L8.12551 11.7714C9.20082 12.8467 10.9442 12.8467 12.0195 11.7714L10.7467 10.4986ZM9.39831 10.4986C9.02595 10.1262 9.02595 9.52253 9.39831 9.15018L8.12551 7.87738C7.05021 8.95269 7.05021 10.6961 8.12551 11.7714L9.39831 10.4986ZM9.39831 9.15018C9.77066 8.77782 10.3744 8.77782 10.7467 9.15018L12.0195 7.87738C10.9442 6.80208 9.20082 6.80208 8.12551 7.87738L9.39831 9.15018Z" fill="white"/>
</svg>
