<svg width="20" height="20" viewBox="0 0 20 20" fill="none" xmlns="http://www.w3.org/2000/svg">
<path fill-rule="evenodd" clip-rule="evenodd" d="M0.833374 10.0002C0.833374 15.0628 4.93743 19.1668 10 19.1668C15.0626 19.1668 19.1667 15.0628 19.1667 10.0002C19.1667 4.93755 15.0626 0.833496 10 0.833496C4.93743 0.833496 0.833374 4.93755 0.833374 10.0002ZM17.5 10.0002C17.5 14.1423 14.1422 17.5002 10 17.5002C5.8579 17.5002 2.50004 14.1423 2.50004 10.0002C2.50004 5.85803 5.8579 2.50016 10 2.50016C14.1422 2.50016 17.5 5.85803 17.5 10.0002ZM10 15.8335C6.77838 15.8335 4.16671 13.2218 4.16671 10.0002C4.16671 6.7785 6.77838 4.16683 10 4.16683C13.2217 4.16683 15.8334 6.7785 15.8334 10.0002C15.8334 13.2218 13.2217 15.8335 10 15.8335ZM14.1667 10.0002C14.1667 12.3013 12.3012 14.1668 10 14.1668C7.69885 14.1668 5.83337 12.3013 5.83337 10.0002C5.83337 7.69898 7.69885 5.8335 10 5.8335C12.3012 5.8335 14.1667 7.69898 14.1667 10.0002ZM10 12.5002C8.61933 12.5002 7.50004 11.3809 7.50004 10.0002C7.50004 8.61945 8.61933 7.50016 10 7.50016C11.3808 7.50016 12.5 8.61945 12.5 10.0002C12.5 11.3809 11.3808 12.5002 10 12.5002ZM10.8334 10.0002C10.8334 10.4604 10.4603 10.8335 10 10.8335C9.5398 10.8335 9.16671 10.4604 9.16671 10.0002C9.16671 9.53993 9.5398 9.16683 10 9.16683C10.4603 9.16683 10.8334 9.53993 10.8334 10.0002Z" fill="#74777A"/>
<mask id="mask0" mask-type="alpha" maskUnits="userSpaceOnUse" x="0" y="0" width="20" height="20">
<path fill-rule="evenodd" clip-rule="evenodd" d="M0.833374 10.0002C0.833374 15.0628 4.93743 19.1668 10 19.1668C15.0626 19.1668 19.1667 15.0628 19.1667 10.0002C19.1667 4.93755 15.0626 0.833496 10 0.833496C4.93743 0.833496 0.833374 4.93755 0.833374 10.0002ZM17.5 10.0002C17.5 14.1423 14.1422 17.5002 10 17.5002C5.8579 17.5002 2.50004 14.1423 2.50004 10.0002C2.50004 5.85803 5.8579 2.50016 10 2.50016C14.1422 2.50016 17.5 5.85803 17.5 10.0002ZM10 15.8335C6.77838 15.8335 4.16671 13.2218 4.16671 10.0002C4.16671 6.7785 6.77838 4.16683 10 4.16683C13.2217 4.16683 15.8334 6.7785 15.8334 10.0002C15.8334 13.2218 13.2217 15.8335 10 15.8335ZM14.1667 10.0002C14.1667 12.3013 12.3012 14.1668 10 14.1668C7.69885 14.1668 5.83337 12.3013 5.83337 10.0002C5.83337 7.69898 7.69885 5.8335 10 5.8335C12.3012 5.8335 14.1667 7.69898 14.1667 10.0002ZM10 12.5002C8.61933 12.5002 7.50004 11.3809 7.50004 10.0002C7.50004 8.61945 8.61933 7.50016 10 7.50016C11.3808 7.50016 12.5 8.61945 12.5 10.0002C12.5 11.3809 11.3808 12.5002 10 12.5002ZM10.8334 10.0002C10.8334 10.4604 10.4603 10.8335 10 10.8335C9.5398 10.8335 9.16671 10.4604 9.16671 10.0002C9.16671 9.53993 9.5398 9.16683 10 9.16683C10.4603 9.16683 10.8334 9.53993 10.8334 10.0002Z" fill="white"/>
</mask>
<g mask="url(#mask0)">
<rect width="20" height="20" fill="#74777A"/>
</g>
</svg>
