<svg width="18" height="18" viewBox="0 0 18 18" fill="none" xmlns="http://www.w3.org/2000/svg">
<path d="M3.53033 9.21967C3.23744 8.92678 2.76256 8.92678 2.46967 9.21967C2.17678 9.51256 2.17678 9.98744 2.46967 10.2803L6.21967 14.0303C6.51256 14.3232 6.98744 14.3232 7.28033 14.0303L15.5303 5.78033C15.8232 5.48744 15.8232 5.01256 15.5303 4.71967C15.2374 4.42678 14.7626 4.42678 14.4697 4.71967L6.75 12.4393L3.53033 9.21967Z" fill="black"/>
<mask id="mask0" mask-type="alpha" maskUnits="userSpaceOnUse" x="2" y="4" width="14" height="11">
<path d="M3.53033 9.21967C3.23744 8.92678 2.76256 8.92678 2.46967 9.21967C2.17678 9.51256 2.17678 9.98744 2.46967 10.2803L6.21967 14.0303C6.51256 14.3232 6.98744 14.3232 7.28033 14.0303L15.5303 5.78033C15.8232 5.48744 15.8232 5.01256 15.5303 4.71967C15.2374 4.42678 14.7626 4.42678 14.4697 4.71967L6.75 12.4393L3.53033 9.21967Z" fill="white"/>
</mask>
<g mask="url(#mask0)">
<rect width="18" height="18" fill="#2871F5"/>
</g>
</svg>
