<svg width="20" height="20" viewBox="0 0 20 20" fill="none" xmlns="http://www.w3.org/2000/svg">
<path fill-rule="evenodd" clip-rule="evenodd" d="M0.833252 10.0002C0.833252 15.0628 4.93731 19.1668 9.99992 19.1668C15.0625 19.1668 19.1666 15.0628 19.1666 10.0002C19.1666 4.93755 15.0625 0.833496 9.99992 0.833496C4.93731 0.833496 0.833252 4.93755 0.833252 10.0002ZM17.4999 10.0002C17.4999 14.1423 14.1421 17.5002 9.99992 17.5002C5.85778 17.5002 2.49992 14.1423 2.49992 10.0002C2.49992 5.85803 5.85778 2.50016 9.99992 2.50016C14.1421 2.50016 17.4999 5.85803 17.4999 10.0002ZM9.99992 15.8335C6.77826 15.8335 4.16658 13.2218 4.16658 10.0002C4.16658 6.7785 6.77826 4.16683 9.99992 4.16683C13.2216 4.16683 15.8333 6.7785 15.8333 10.0002C15.8333 13.2218 13.2216 15.8335 9.99992 15.8335ZM14.1666 10.0002C14.1666 12.3013 12.3011 14.1668 9.99992 14.1668C7.69873 14.1668 5.83325 12.3013 5.83325 10.0002C5.83325 7.69898 7.69873 5.8335 9.99992 5.8335C12.3011 5.8335 14.1666 7.69898 14.1666 10.0002ZM9.99992 12.5002C8.61921 12.5002 7.49992 11.3809 7.49992 10.0002C7.49992 8.61945 8.61921 7.50016 9.99992 7.50016C11.3806 7.50016 12.4999 8.61945 12.4999 10.0002C12.4999 11.3809 11.3806 12.5002 9.99992 12.5002ZM10.8333 10.0002C10.8333 10.4604 10.4602 10.8335 9.99992 10.8335C9.53968 10.8335 9.16659 10.4604 9.16659 10.0002C9.16659 9.53993 9.53968 9.16683 9.99992 9.16683C10.4602 9.16683 10.8333 9.53993 10.8333 10.0002Z" fill="#2871F5"/>
<mask id="mask0" mask-type="alpha" maskUnits="userSpaceOnUse" x="0" y="0" width="20" height="20">
<path fill-rule="evenodd" clip-rule="evenodd" d="M0.833252 10.0002C0.833252 15.0628 4.93731 19.1668 9.99992 19.1668C15.0625 19.1668 19.1666 15.0628 19.1666 10.0002C19.1666 4.93755 15.0625 0.833496 9.99992 0.833496C4.93731 0.833496 0.833252 4.93755 0.833252 10.0002ZM17.4999 10.0002C17.4999 14.1423 14.1421 17.5002 9.99992 17.5002C5.85778 17.5002 2.49992 14.1423 2.49992 10.0002C2.49992 5.85803 5.85778 2.50016 9.99992 2.50016C14.1421 2.50016 17.4999 5.85803 17.4999 10.0002ZM9.99992 15.8335C6.77826 15.8335 4.16658 13.2218 4.16658 10.0002C4.16658 6.7785 6.77826 4.16683 9.99992 4.16683C13.2216 4.16683 15.8333 6.7785 15.8333 10.0002C15.8333 13.2218 13.2216 15.8335 9.99992 15.8335ZM14.1666 10.0002C14.1666 12.3013 12.3011 14.1668 9.99992 14.1668C7.69873 14.1668 5.83325 12.3013 5.83325 10.0002C5.83325 7.69898 7.69873 5.8335 9.99992 5.8335C12.3011 5.8335 14.1666 7.69898 14.1666 10.0002ZM9.99992 12.5002C8.61921 12.5002 7.49992 11.3809 7.49992 10.0002C7.49992 8.61945 8.61921 7.50016 9.99992 7.50016C11.3806 7.50016 12.4999 8.61945 12.4999 10.0002C12.4999 11.3809 11.3806 12.5002 9.99992 12.5002ZM10.8333 10.0002C10.8333 10.4604 10.4602 10.8335 9.99992 10.8335C9.53968 10.8335 9.16659 10.4604 9.16659 10.0002C9.16659 9.53993 9.53968 9.16683 9.99992 9.16683C10.4602 9.16683 10.8333 9.53993 10.8333 10.0002Z" fill="white"/>
</mask>
<g mask="url(#mask0)">
<rect width="20" height="20" fill="#2871F5"/>
</g>
</svg>
