<svg width="20" height="20" viewBox="0 0 20 20" fill="none" xmlns="http://www.w3.org/2000/svg">
<path fill-rule="evenodd" clip-rule="evenodd" d="M11.6668 1.6665H8.3335C7.87326 1.6665 7.50016 2.0396 7.50016 2.49984V17.4998C7.50016 17.9601 7.87326 18.3332 8.3335 18.3332H11.6668C12.1271 18.3332 12.5002 17.9601 12.5002 17.4998V2.49984C12.5002 2.0396 12.1271 1.6665 11.6668 1.6665ZM10.8335 16.6665H9.16683V3.33317H10.8335V16.6665ZM15.0002 5.83317H18.3335C18.7937 5.83317 19.1668 6.20627 19.1668 6.6665V17.4998C19.1668 17.9601 18.7937 18.3332 18.3335 18.3332H15.0002C14.5399 18.3332 14.1668 17.9601 14.1668 17.4998V6.6665C14.1668 6.20627 14.5399 5.83317 15.0002 5.83317ZM5.00016 9.99984H1.66683C1.20659 9.99984 0.833496 10.3729 0.833496 10.8332V17.4998C0.833496 17.9601 1.20659 18.3332 1.66683 18.3332H5.00016C5.4604 18.3332 5.8335 17.9601 5.8335 17.4998V10.8332C5.8335 10.3729 5.4604 9.99984 5.00016 9.99984ZM15.8335 7.49984V16.6665H17.5002V7.49984H15.8335ZM4.16683 16.6665H2.50016V11.6665H4.16683V16.6665Z" fill="#74777A"/>
<mask id="mask0" mask-type="alpha" maskUnits="userSpaceOnUse" x="0" y="1" width="20" height="18">
<path fill-rule="evenodd" clip-rule="evenodd" d="M11.6668 1.6665H8.3335C7.87326 1.6665 7.50016 2.0396 7.50016 2.49984V17.4998C7.50016 17.9601 7.87326 18.3332 8.3335 18.3332H11.6668C12.1271 18.3332 12.5002 17.9601 12.5002 17.4998V2.49984C12.5002 2.0396 12.1271 1.6665 11.6668 1.6665ZM10.8335 16.6665H9.16683V3.33317H10.8335V16.6665ZM15.0002 5.83317H18.3335C18.7937 5.83317 19.1668 6.20627 19.1668 6.6665V17.4998C19.1668 17.9601 18.7937 18.3332 18.3335 18.3332H15.0002C14.5399 18.3332 14.1668 17.9601 14.1668 17.4998V6.6665C14.1668 6.20627 14.5399 5.83317 15.0002 5.83317ZM5.00016 9.99984H1.66683C1.20659 9.99984 0.833496 10.3729 0.833496 10.8332V17.4998C0.833496 17.9601 1.20659 18.3332 1.66683 18.3332H5.00016C5.4604 18.3332 5.8335 17.9601 5.8335 17.4998V10.8332C5.8335 10.3729 5.4604 9.99984 5.00016 9.99984ZM15.8335 7.49984V16.6665H17.5002V7.49984H15.8335ZM4.16683 16.6665H2.50016V11.6665H4.16683V16.6665Z" fill="white"/>
</mask>
<g mask="url(#mask0)">
<rect width="20" height="20" fill="#74777A"/>
</g>
</svg>
