<svg width="18" height="18" viewBox="0 0 18 18" fill="none" xmlns="http://www.w3.org/2000/svg">
<path fill-rule="evenodd" clip-rule="evenodd" d="M11.25 2.25V1.5C11.25 1.08579 11.5858 0.75 12 0.75C12.4142 0.75 12.75 1.08579 12.75 1.5V2.25H14.25C15.4926 2.25 16.5 3.25736 16.5 4.5V7.5V15C16.5 16.2426 15.4926 17.25 14.25 17.25H3.75C2.50736 17.25 1.5 16.2426 1.5 15V7.5V4.5C1.5 3.25736 2.50736 2.25 3.75 2.25H5.25V1.5C5.25 1.08579 5.58579 0.75 6 0.75C6.41421 0.75 6.75 1.08579 6.75 1.5V2.25H11.25ZM3 8.25V15C3 15.4142 3.33579 15.75 3.75 15.75H14.25C14.6642 15.75 15 15.4142 15 15V8.25H3ZM15 6.75H3V4.5C3 4.08579 3.33579 3.75 3.75 3.75H5.25V4.5C5.25 4.91421 5.58579 5.25 6 5.25C6.41421 5.25 6.75 4.91421 6.75 4.5V3.75H11.25V4.5C11.25 4.91421 11.5858 5.25 12 5.25C12.4142 5.25 12.75 4.91421 12.75 4.5V3.75H14.25C14.6642 3.75 15 4.08579 15 4.5V6.75Z" fill="#74777A"/>
<mask id="mask0" mask-type="alpha" maskUnits="userSpaceOnUse" x="1" y="0" width="16" height="18">
<path fill-rule="evenodd" clip-rule="evenodd" d="M11.25 2.25V1.5C11.25 1.08579 11.5858 0.75 12 0.75C12.4142 0.75 12.75 1.08579 12.75 1.5V2.25H14.25C15.4926 2.25 16.5 3.25736 16.5 4.5V7.5V15C16.5 16.2426 15.4926 17.25 14.25 17.25H3.75C2.50736 17.25 1.5 16.2426 1.5 15V7.5V4.5C1.5 3.25736 2.50736 2.25 3.75 2.25H5.25V1.5C5.25 1.08579 5.58579 0.75 6 0.75C6.41421 0.75 6.75 1.08579 6.75 1.5V2.25H11.25ZM3 8.25V15C3 15.4142 3.33579 15.75 3.75 15.75H14.25C14.6642 15.75 15 15.4142 15 15V8.25H3ZM15 6.75H3V4.5C3 4.08579 3.33579 3.75 3.75 3.75H5.25V4.5C5.25 4.91421 5.58579 5.25 6 5.25C6.41421 5.25 6.75 4.91421 6.75 4.5V3.75H11.25V4.5C11.25 4.91421 11.5858 5.25 12 5.25C12.4142 5.25 12.75 4.91421 12.75 4.5V3.75H14.25C14.6642 3.75 15 4.08579 15 4.5V6.75Z" fill="white"/>
</mask>
<g mask="url(#mask0)">
<rect width="18" height="18" fill="#74777A"/>
</g>
</svg>
