<svg width="14" height="14" viewBox="0 0 14 14" fill="none" xmlns="http://www.w3.org/2000/svg">
<path fill-rule="evenodd" clip-rule="evenodd" d="M11.7628 0.963799L0.962823 11.7638C0.611351 12.1153 0.611351 12.6851 0.962823 13.0366C1.31429 13.3881 1.88414 13.3881 2.23562 13.0366L13.0356 2.23659C13.3871 1.88512 13.3871 1.31527 13.0356 0.963799C12.6841 0.612327 12.1143 0.612327 11.7628 0.963799Z" fill="#25C16F"/>
<path fill-rule="evenodd" clip-rule="evenodd" d="M0.962823 2.23659L11.7628 13.0366C12.1143 13.3881 12.6841 13.3881 13.0356 13.0366C13.3871 12.6851 13.3871 12.1153 13.0356 11.7638L2.23562 0.963799C1.88414 0.612327 1.31429 0.612327 0.962823 0.963799C0.611351 1.31527 0.611351 1.88512 0.962823 2.23659Z" fill="#25C16F"/>
</svg>
