<svg width="20" height="20" viewBox="0 0 20 20" fill="none" xmlns="http://www.w3.org/2000/svg">
<path fill-rule="evenodd" clip-rule="evenodd" d="M0.833374 10.0002C0.833374 15.0628 4.93743 19.1668 10 19.1668C15.0626 19.1668 19.1667 15.0628 19.1667 10.0002C19.1667 4.93755 15.0626 0.833496 10 0.833496C4.93743 0.833496 0.833374 4.93755 0.833374 10.0002ZM10.8334 17.4544V15.0002C10.8334 14.5399 10.4603 14.1668 10 14.1668C9.5398 14.1668 9.16671 14.5399 9.16671 15.0002V17.4544C5.69036 17.0701 2.93011 14.3098 2.54581 10.8335H5.00004C5.46028 10.8335 5.83337 10.4604 5.83337 10.0002C5.83337 9.53993 5.46028 9.16683 5.00004 9.16683H2.54581C2.9301 5.69048 5.69036 2.93023 9.16671 2.54594V5.00016C9.16671 5.4604 9.5398 5.8335 10 5.8335C10.4603 5.8335 10.8334 5.4604 10.8334 5.00016V2.54594C14.3097 2.93023 17.07 5.69048 17.4543 9.16683H15C14.5398 9.16683 14.1667 9.53993 14.1667 10.0002C14.1667 10.4604 14.5398 10.8335 15 10.8335H17.4543C17.07 14.3098 14.3097 17.0701 10.8334 17.4544Z" fill="#2871F5"/>
<mask id="mask0" mask-type="alpha" maskUnits="userSpaceOnUse" x="0" y="0" width="20" height="20">
<path fill-rule="evenodd" clip-rule="evenodd" d="M0.833374 10.0002C0.833374 15.0628 4.93743 19.1668 10 19.1668C15.0626 19.1668 19.1667 15.0628 19.1667 10.0002C19.1667 4.93755 15.0626 0.833496 10 0.833496C4.93743 0.833496 0.833374 4.93755 0.833374 10.0002ZM10.8334 17.4544V15.0002C10.8334 14.5399 10.4603 14.1668 10 14.1668C9.5398 14.1668 9.16671 14.5399 9.16671 15.0002V17.4544C5.69036 17.0701 2.93011 14.3098 2.54581 10.8335H5.00004C5.46028 10.8335 5.83337 10.4604 5.83337 10.0002C5.83337 9.53993 5.46028 9.16683 5.00004 9.16683H2.54581C2.9301 5.69048 5.69036 2.93023 9.16671 2.54594V5.00016C9.16671 5.4604 9.5398 5.8335 10 5.8335C10.4603 5.8335 10.8334 5.4604 10.8334 5.00016V2.54594C14.3097 2.93023 17.07 5.69048 17.4543 9.16683H15C14.5398 9.16683 14.1667 9.53993 14.1667 10.0002C14.1667 10.4604 14.5398 10.8335 15 10.8335H17.4543C17.07 14.3098 14.3097 17.0701 10.8334 17.4544Z" fill="white"/>
</mask>
<g mask="url(#mask0)">
<rect width="20" height="20" fill="#2871F5"/>
</g>
</svg>
