<svg width="18" height="18" viewBox="0 0 18 18" fill="none" xmlns="http://www.w3.org/2000/svg">
<path fill-rule="evenodd" clip-rule="evenodd" d="M8.15625 8.15625V3.09375C8.15625 2.62776 8.53401 2.25 9 2.25C9.46599 2.25 9.84375 2.62776 9.84375 3.09375V8.15625H14.9062C15.3722 8.15625 15.75 8.53401 15.75 9C15.75 9.46599 15.3722 9.84375 14.9062 9.84375H9.84375V14.9062C9.84375 15.3722 9.46599 15.75 9 15.75C8.53401 15.75 8.15625 15.3722 8.15625 14.9062V9.84375H3.09375C2.62776 9.84375 2.25 9.46599 2.25 9C2.25 8.53401 2.62776 8.15625 3.09375 8.15625H8.15625Z" fill="white"/>
<mask id="mask0" mask-type="alpha" maskUnits="userSpaceOnUse" x="2" y="2" width="14" height="14">
<path fill-rule="evenodd" clip-rule="evenodd" d="M8.15625 8.15625V3.09375C8.15625 2.62776 8.53401 2.25 9 2.25C9.46599 2.25 9.84375 2.62776 9.84375 3.09375V8.15625H14.9062C15.3722 8.15625 15.75 8.53401 15.75 9C15.75 9.46599 15.3722 9.84375 14.9062 9.84375H9.84375V14.9062C9.84375 15.3722 9.46599 15.75 9 15.75C8.53401 15.75 8.15625 15.3722 8.15625 14.9062V9.84375H3.09375C2.62776 9.84375 2.25 9.46599 2.25 9C2.25 8.53401 2.62776 8.15625 3.09375 8.15625H8.15625Z" fill="white"/>
</mask>
<g mask="url(#mask0)">
</g>
</svg>
