<svg width="20" height="20" viewBox="0 0 20 20" fill="none" xmlns="http://www.w3.org/2000/svg">
<path fill-rule="evenodd" clip-rule="evenodd" d="M19.6001 7.51305C19.6003 7.61601 19.5816 7.71911 19.5438 7.81668L19.5396 7.82716C19.4161 8.13271 19.1166 8.34828 18.7668 8.34828H13.7668C13.3065 8.34828 12.9334 7.97519 12.9334 7.51495C12.9334 7.05471 13.3065 6.68162 13.7668 6.68162H16.663L14.3294 4.48891C12.6925 2.85172 10.3568 2.17613 8.12424 2.68129C5.89163 3.18644 4.07431 4.8017 3.31069 6.95961C3.15716 7.39349 2.68097 7.62075 2.2471 7.46721C1.81323 7.31368 1.58597 6.83749 1.7395 6.40362C2.69402 3.70622 4.96567 1.68716 7.75643 1.05571C10.5472 0.424267 13.4668 1.26876 15.4895 3.29251L17.9334 5.5886V2.51495C17.9334 2.05471 18.3065 1.68162 18.7668 1.68162C19.227 1.68162 19.6001 2.05471 19.6001 2.51495V7.51305ZM0.433439 12.5187C0.433186 12.4157 0.451895 12.3126 0.489744 12.215L0.493893 12.2046C0.617443 11.899 0.916933 11.6834 1.26677 11.6834H6.26677C6.72701 11.6834 7.10011 12.0565 7.10011 12.5168C7.10011 12.977 6.72701 13.3501 6.26677 13.3501H3.37056L5.70409 15.5428C7.34103 17.18 9.67669 17.8556 11.9093 17.3504C14.1419 16.8453 15.9592 15.23 16.7228 13.0721C16.8764 12.6382 17.3526 12.411 17.7864 12.5645C18.2203 12.718 18.4476 13.1942 18.294 13.6281C17.3395 16.3255 15.0679 18.3446 12.2771 18.976C9.48634 19.6074 6.56678 18.763 4.54403 16.7392L2.10011 14.4431V17.5168C2.10011 17.977 1.72701 18.3501 1.26677 18.3501C0.806534 18.3501 0.433439 17.977 0.433439 17.5168V12.5187Z" fill="#74777A"/>
</svg>
