<svg width="18" height="18" viewBox="0 0 18 18" fill="none" xmlns="http://www.w3.org/2000/svg">
<g clip-path="url(#clip0)">
<path fill-rule="evenodd" clip-rule="evenodd" d="M17.2678 1.44295L16.5937 1.40693L16.557 0.732938C16.7483 0.722494 16.9352 0.79391 17.0708 0.929368C17.2064 1.06483 17.278 1.25155 17.2678 1.44295ZM8.47515 13.541C8.72651 14.1675 8.7267 14.1674 8.7269 14.1673L8.72839 14.1667L8.73115 14.1656L8.73923 14.1623L8.76554 14.1513C8.78752 14.142 8.81832 14.1287 8.85743 14.1112C8.93565 14.0763 9.04717 14.0246 9.18803 13.9545C9.4697 13.8143 9.86895 13.6004 10.354 13.2997C11.3239 12.6984 12.6382 11.7489 14.0412 10.346C15.5406 8.84652 16.333 6.5762 16.7571 4.77098C16.9725 3.85413 17.0997 3.02679 17.1732 2.42841C17.21 2.12878 17.2335 1.88544 17.2478 1.71564C17.255 1.63072 17.2599 1.5641 17.2631 1.51796C17.2646 1.49488 17.2658 1.47692 17.2665 1.46433L17.2674 1.44951L17.2677 1.44519L17.2677 1.44381L17.2678 1.44295C17.2678 1.44276 17.2678 1.44295 16.5937 1.40693C16.557 0.732938 16.5571 0.732927 16.557 0.732938L16.5547 0.733061L16.5504 0.733309L16.5356 0.7342C16.523 0.734978 16.505 0.736135 16.4819 0.737735C16.4356 0.740934 16.3689 0.74591 16.2838 0.753178C16.1137 0.767709 15.8698 0.791433 15.5696 0.828516C14.9701 0.902575 14.1413 1.03046 13.2232 1.24631C11.4159 1.67123 9.14341 2.4635 7.64741 3.95951C6.24801 5.3589 5.29858 6.6732 4.69647 7.64381C4.39536 8.12918 4.18087 8.52899 4.04019 8.81109C3.96984 8.95216 3.91791 9.06386 3.8828 9.14219C3.86525 9.18136 3.8519 9.21219 3.84255 9.23418L3.8315 9.26049L3.82818 9.26856L3.82707 9.2713L3.82664 9.27234C3.82656 9.27254 3.82631 9.27317 4.45236 9.52552L3.82631 9.27317C3.72495 9.52463 3.78388 9.81232 3.97593 10.0037L7.99785 14.0183C8.18897 14.2094 8.47606 14.268 8.7269 14.1673L8.47515 13.541ZM5.26429 9.38164L6.94471 11.056L8.61859 12.7298C8.86439 12.6064 9.21479 12.4176 9.64262 12.1524C10.5363 11.5983 11.7663 10.7116 13.0866 9.39136C14.3104 8.16758 15.0329 6.20703 15.4429 4.46219C15.6445 3.60401 15.7642 2.82653 15.8333 2.26384C15.8379 2.22655 15.8422 2.19023 15.8464 2.1549C15.8103 2.15915 15.7732 2.16363 15.7351 2.16833C15.1711 2.23801 14.3919 2.35835 13.5322 2.56048C11.784 2.97151 9.82193 3.69417 8.60201 4.9141C7.28548 6.23063 6.39873 7.46069 5.84366 8.35547C5.57787 8.78392 5.38834 9.13514 5.26429 9.38164Z" fill="white"/>
<path fill-rule="evenodd" clip-rule="evenodd" d="M3.41433 13.4524C3.41232 13.4546 3.40567 13.4622 3.39451 13.477C3.38055 13.4956 3.36277 13.5213 3.34131 13.5552C3.298 13.6237 3.24714 13.7142 3.18965 13.8271C3.07461 14.0531 2.94624 14.3427 2.81225 14.6728C2.70541 14.936 2.5973 15.2192 2.49202 15.508C2.78065 15.4027 3.06369 15.2944 3.32668 15.1873C3.65658 15.053 3.94567 14.9241 4.17107 14.8084C4.28368 14.7506 4.37377 14.6995 4.44185 14.6559C4.47557 14.6344 4.50099 14.6165 4.51933 14.6025C4.53703 14.589 4.54417 14.5821 4.54418 14.5822L4.54713 14.5792C4.85357 14.2767 4.85891 13.7741 4.54705 13.4591C4.38141 13.2991 4.17934 13.223 3.97735 13.223C3.77076 13.223 3.56678 13.302 3.41433 13.4524ZM2.45603 12.5015C2.87266 12.0849 3.42633 11.873 3.97735 11.873C4.53339 11.873 5.07474 12.0881 5.4926 12.4955L5.49871 12.5015L5.49868 12.5015C6.3369 13.3397 6.34175 14.703 5.49701 15.5385C5.31369 15.7211 5.0401 15.8798 4.78751 16.0095C4.51371 16.15 4.18496 16.2954 3.83587 16.4376C3.1364 16.7225 2.31808 17.0093 1.61378 17.2354C1.37291 17.3128 1.10902 17.2489 0.930143 17.07C0.751262 16.8912 0.687419 16.6273 0.76475 16.3864C0.990886 15.682 1.27763 14.864 1.56137 14.165C1.70298 13.8162 1.84749 13.4879 1.98661 13.2146C2.11534 12.9618 2.27231 12.6885 2.45175 12.5058L2.45601 12.5015L2.45603 12.5015Z" fill="white"/>
<path fill-rule="evenodd" clip-rule="evenodd" d="M11.526 5.6083C11.048 5.6083 10.6605 5.99579 10.6605 6.47379C10.6605 6.95178 11.048 7.33927 11.526 7.33927C12.004 7.33927 12.3915 6.95178 12.3915 6.47379C12.3915 5.99579 12.004 5.6083 11.526 5.6083ZM9.31055 6.47379C9.31055 5.25021 10.3025 4.2583 11.526 4.2583C12.7496 4.2583 13.7415 5.25021 13.7415 6.47379C13.7415 7.69737 12.7496 8.68927 11.526 8.68927C10.3025 8.68927 9.31055 7.69737 9.31055 6.47379Z" fill="white"/>
<path fill-rule="evenodd" clip-rule="evenodd" d="M13.3551 9.44415C13.7267 9.4744 14.0034 9.80014 13.9731 10.1717L13.3003 10.1169C13.9731 10.1717 13.9731 10.1715 13.9731 10.1717L13.973 10.1725L13.9729 10.1737L13.9727 10.1773L13.9716 10.1888L13.9679 10.2291C13.9645 10.2636 13.9594 10.3128 13.9523 10.3754C13.9379 10.5005 13.9151 10.6791 13.8808 10.8993C13.8124 11.3388 13.6977 11.9479 13.5116 12.6292C13.145 13.9715 12.4782 15.6828 11.2661 16.8949C11.0846 17.0764 10.8157 17.1393 10.5725 17.057C10.3293 16.9747 10.1539 16.7616 10.1198 16.5072C10.1198 16.5072 10.1198 16.5072 10.1198 16.5072L10.1196 16.5057L10.1187 16.499L10.1147 16.4704C10.1111 16.4449 10.1055 16.4068 10.0981 16.358C10.0833 16.2603 10.0609 16.1203 10.0314 15.9534C9.97198 15.6174 9.88488 15.1812 9.7728 14.7638C9.65681 14.3318 9.52867 13.977 9.40488 13.7689C9.40375 13.7671 9.40264 13.7652 9.40155 13.7634C9.14659 13.7687 8.89955 13.6286 8.7804 13.3843C8.61696 13.0493 8.75608 12.6452 9.09113 12.4817C9.42752 12.3176 9.77787 12.3586 10.0577 12.5301C10.2945 12.6751 10.4562 12.8957 10.565 13.0786C10.7882 13.4537 10.9544 13.9585 11.0766 14.4137C11.112 14.5455 11.145 14.678 11.1754 14.8083C11.6501 14.011 11.9824 13.1045 12.2093 12.2735C12.3792 11.6516 12.4844 11.0935 12.5469 10.6916C12.5781 10.4911 12.5986 10.3305 12.6111 10.2215C12.6173 10.167 12.6216 10.1255 12.6242 10.0984L12.627 10.0689L12.6275 10.0626C12.6275 10.0625 12.6275 10.0627 12.6275 10.0626M13.3551 9.44415C12.9836 9.41391 12.6579 9.69116 12.6275 10.0626L13.3551 9.44415Z" fill="white"/>
<path fill-rule="evenodd" clip-rule="evenodd" d="M7.93085 5.35806L7.92412 5.35865L7.89458 5.36142C7.86752 5.36405 7.82601 5.36832 7.77154 5.37457C7.66254 5.38708 7.50191 5.40752 7.30135 5.43873C6.89949 5.50128 6.34139 5.60646 5.71945 5.77632C4.88852 6.00326 3.98202 6.33549 3.18465 6.81019C3.31497 6.84067 3.44749 6.87362 3.57933 6.90902C4.03445 7.03123 4.53928 7.1974 4.91441 7.42062C5.09731 7.52946 5.31785 7.69111 5.46291 7.9279C5.63436 8.20776 5.67537 8.55811 5.51128 8.8945C5.34784 9.22955 4.94373 9.36867 4.60868 9.20523C4.36442 9.08609 4.2243 8.83904 4.2296 8.58408C4.22778 8.58299 4.22593 8.58188 4.22405 8.58076C4.01602 8.45696 3.66117 8.32882 3.22923 8.21283C2.81181 8.10075 2.37562 8.01365 2.03963 7.95422C1.87266 7.92469 1.73266 7.90237 1.63499 7.88753C1.58619 7.88011 1.54808 7.87457 1.52257 7.87095L1.49404 7.86695L1.48735 7.86603L1.48597 7.86584C1.23153 7.83177 1.01828 7.6563 0.936011 7.41312C0.853725 7.1699 0.916554 6.90105 1.09811 6.7195C2.31021 5.5074 4.0215 4.8406 5.36378 4.47402C6.04505 4.28795 6.65417 4.1732 7.09374 4.10479C7.3139 4.07052 7.49253 4.04773 7.61761 4.03337C7.68018 4.02619 7.72943 4.02111 7.76385 4.01776L7.80422 4.01399L7.81574 4.01298L7.81927 4.01268L7.82047 4.01258C7.82066 4.01257 7.82129 4.01252 7.87203 4.63566L7.8213 4.01252C8.19286 3.98226 8.5186 4.25895 8.54885 4.63052C8.57908 5.00192 8.30217 5.32757 7.93085 5.35806Z" fill="white"/>
</g>
<defs>
<clipPath id="clip0">
<rect width="16.5" height="16.5" fill="white" transform="translate(0.75 0.75)"/>
</clipPath>
</defs>
</svg>
