<svg width="20" height="20" viewBox="0 0 20 20" fill="none" xmlns="http://www.w3.org/2000/svg">
<mask id="path-1-inside-1" fill="white">
<rect y="2" width="20" height="16" rx="1"/>
</mask>
<rect y="2" width="20" height="16" rx="1" stroke="#2871F5" stroke-width="3.4" stroke-linecap="round" stroke-linejoin="round" mask="url(#path-1-inside-1)"/>
<path d="M12.2983 11.166C12.2983 11.5645 12.1973 11.9189 11.9951 12.2295C11.793 12.5371 11.5015 12.7773 11.1206 12.9502C10.7397 13.1201 10.293 13.2051 9.78027 13.2051C9.35254 13.2051 8.99365 13.1758 8.70361 13.1172C8.41357 13.0557 8.11182 12.9502 7.79834 12.8008V11.2539C8.12939 11.4238 8.47363 11.5571 8.83105 11.6538C9.18848 11.7476 9.5166 11.7944 9.81543 11.7944C10.0732 11.7944 10.2622 11.7505 10.3823 11.6626C10.5024 11.5718 10.5625 11.4561 10.5625 11.3154C10.5625 11.2275 10.5376 11.1514 10.4878 11.0869C10.4409 11.0195 10.3633 10.9521 10.2549 10.8848C10.1494 10.8174 9.86523 10.6797 9.40234 10.4717C8.9834 10.2812 8.66846 10.0967 8.45752 9.91797C8.24951 9.73926 8.09424 9.53418 7.9917 9.30273C7.89209 9.07129 7.84229 8.79736 7.84229 8.48096C7.84229 7.88916 8.05762 7.42773 8.48828 7.09668C8.91895 6.76562 9.51074 6.6001 10.2637 6.6001C10.9287 6.6001 11.6069 6.75391 12.2983 7.06152L11.7666 8.40186C11.166 8.12646 10.6475 7.98877 10.2109 7.98877C9.98535 7.98877 9.82129 8.02832 9.71875 8.10742C9.61621 8.18652 9.56494 8.28467 9.56494 8.40186C9.56494 8.52783 9.62939 8.64062 9.7583 8.74023C9.89014 8.83984 10.2446 9.02148 10.8218 9.28516C11.3755 9.53418 11.7593 9.80225 11.9731 10.0894C12.1899 10.3735 12.2983 10.7324 12.2983 11.166Z" fill="#2871F5"/>
<path fill-rule="evenodd" clip-rule="evenodd" d="M9.1001 7V6H10.9001V7H9.1001Z" fill="#2871F5"/>
<path fill-rule="evenodd" clip-rule="evenodd" d="M9.1001 14V12.5H10.9001V14H9.1001Z" fill="#2871F5"/>
</svg>
