<svg width="12" height="12" viewBox="0 0 12 12" fill="none" xmlns="http://www.w3.org/2000/svg">
<path fill-rule="evenodd" clip-rule="evenodd" d="M5.25922 5.25958V0.814959C5.25922 0.40586 5.59086 0.0742188 5.99996 0.0742188C6.40906 0.0742188 6.7407 0.40586 6.7407 0.814959V5.25958H11.1853C11.5944 5.25958 11.926 5.59122 11.926 6.00032C11.926 6.40942 11.5944 6.74106 11.1853 6.74106H6.7407V11.1853C6.7407 11.5944 6.40906 11.9261 5.99996 11.9261C5.59086 11.9261 5.25922 11.5944 5.25922 11.1853V6.74106H0.814898C0.405799 6.74106 0.0741577 6.40942 0.0741577 6.00032C0.0741577 5.59122 0.405799 5.25958 0.814898 5.25958H5.25922Z" fill="#4C86F4"/>
<mask id="mask0" mask-type="alpha" maskUnits="userSpaceOnUse" x="0" y="0" width="12" height="12">
<path fill-rule="evenodd" clip-rule="evenodd" d="M5.25922 5.25958V0.814959C5.25922 0.40586 5.59086 0.0742188 5.99996 0.0742188C6.40906 0.0742188 6.7407 0.40586 6.7407 0.814959V5.25958H11.1853C11.5944 5.25958 11.926 5.59122 11.926 6.00032C11.926 6.40942 11.5944 6.74106 11.1853 6.74106H6.7407V11.1853C6.7407 11.5944 6.40906 11.9261 5.99996 11.9261C5.59086 11.9261 5.25922 11.5944 5.25922 11.1853V6.74106H0.814898C0.405799 6.74106 0.0741577 6.40942 0.0741577 6.00032C0.0741577 5.59122 0.405799 5.25958 0.814898 5.25958H5.25922Z" fill="white"/>
</mask>
<g mask="url(#mask0)">
</g>
</svg>
