<svg width="20" height="20" viewBox="0 0 20 20" fill="none" xmlns="http://www.w3.org/2000/svg">
<path fill-rule="evenodd" clip-rule="evenodd" d="M15.7273 15.7272V10C15.7273 9.54817 16.0936 9.18186 16.5454 9.18186C16.9973 9.18186 17.3636 9.54817 17.3636 10V15.7272C17.3636 17.0828 16.2647 18.1817 14.9091 18.1817H3.45475C2.09916 18.1817 1.00024 17.0828 1.00024 15.7272V4.27286C1.00024 2.91728 2.09916 1.81836 3.45475 1.81836H12.4546C12.9064 1.81836 13.2728 2.18467 13.2728 2.63653C13.2728 3.08839 12.9064 3.45469 12.4546 3.45469H3.45475C3.00288 3.45469 2.63658 3.821 2.63658 4.27286V15.7272C2.63658 16.1791 3.00288 16.5454 3.45475 16.5454H14.9091C15.3609 16.5454 15.7273 16.1791 15.7273 15.7272ZM7.30595 8.60333L9.18192 10.4793L17.6032 2.05799C17.9227 1.73848 18.4408 1.73848 18.7603 2.05799C19.0798 2.37751 19.0798 2.89554 18.7603 3.21506L9.76045 12.2149C9.44093 12.5344 8.9229 12.5344 8.60338 12.2149L6.14888 9.76039C5.82937 9.44088 5.82937 8.92285 6.14888 8.60333C6.4684 8.28382 6.98643 8.28382 7.30595 8.60333Z" fill="#2871F5"/>
<mask id="mask0" mask-type="alpha" maskUnits="userSpaceOnUse" x="1" y="1" width="18" height="18">
<path fill-rule="evenodd" clip-rule="evenodd" d="M15.7273 15.7272V10C15.7273 9.54817 16.0936 9.18186 16.5454 9.18186C16.9973 9.18186 17.3636 9.54817 17.3636 10V15.7272C17.3636 17.0828 16.2647 18.1817 14.9091 18.1817H3.45475C2.09916 18.1817 1.00024 17.0828 1.00024 15.7272V4.27286C1.00024 2.91728 2.09916 1.81836 3.45475 1.81836H12.4546C12.9064 1.81836 13.2728 2.18467 13.2728 2.63653C13.2728 3.08839 12.9064 3.45469 12.4546 3.45469H3.45475C3.00288 3.45469 2.63658 3.821 2.63658 4.27286V15.7272C2.63658 16.1791 3.00288 16.5454 3.45475 16.5454H14.9091C15.3609 16.5454 15.7273 16.1791 15.7273 15.7272ZM7.30595 8.60333L9.18192 10.4793L17.6032 2.05799C17.9227 1.73848 18.4408 1.73848 18.7603 2.05799C19.0798 2.37751 19.0798 2.89554 18.7603 3.21506L9.76045 12.2149C9.44093 12.5344 8.9229 12.5344 8.60338 12.2149L6.14888 9.76039C5.82937 9.44088 5.82937 8.92285 6.14888 8.60333C6.4684 8.28382 6.98643 8.28382 7.30595 8.60333Z" fill="white"/>
</mask>
<g mask="url(#mask0)">
<rect width="20" height="20" fill="#2871F5"/>
</g>
</svg>
