<svg width="3" height="15" viewBox="0 0 3 15" fill="none" xmlns="http://www.w3.org/2000/svg">
<path fill-rule="evenodd" clip-rule="evenodd" d="M-6.55671e-08 1.5C-1.01779e-07 2.32843 0.671573 3 1.5 3C2.32843 3 3 2.32843 3 1.5C3 0.671573 2.32843 -2.93554e-08 1.5 -6.55671e-08C0.671573 -1.01779e-07 -2.93554e-08 0.671573 -6.55671e-08 1.5Z" fill="#CED0D6"/>
<path fill-rule="evenodd" clip-rule="evenodd" d="M-6.55671e-08 7.5C-1.01779e-07 8.32843 0.671573 9 1.5 9C2.32843 9 3 8.32843 3 7.5C3 6.67157 2.32843 6 1.5 6C0.671573 6 -2.93554e-08 6.67157 -6.55671e-08 7.5Z" fill="#CED0D6"/>
<path fill-rule="evenodd" clip-rule="evenodd" d="M-6.55671e-08 13.5C-1.01779e-07 14.3284 0.671573 15 1.5 15C2.32843 15 3 14.3284 3 13.5C3 12.6716 2.32843 12 1.5 12C0.671573 12 -2.93554e-08 12.6716 -6.55671e-08 13.5Z" fill="#CED0D6"/>
</svg>
