<svg width="20" height="20" viewBox="0 0 20 20" fill="none" xmlns="http://www.w3.org/2000/svg">
<path fill-rule="evenodd" clip-rule="evenodd" d="M4.11133 1.55718C4.11133 1.1575 4.43533 0.833496 4.83501 0.833496H7.38714C7.78682 0.833496 8.11082 1.1575 8.11082 1.55718V15.4016C8.11082 15.8013 7.78682 16.1253 7.38714 16.1253C6.98746 16.1253 6.66346 15.8013 6.66346 15.4016V2.28086H5.5587V15.4016C5.5587 15.8013 5.23469 16.1253 4.83501 16.1253C4.43533 16.1253 4.11133 15.8013 4.11133 15.4016V1.55718Z" fill="white"/>
<path fill-rule="evenodd" clip-rule="evenodd" d="M2.22559 16.0308C2.22559 15.6311 2.54959 15.3071 2.94927 15.3071H9.38202C9.7817 15.3071 10.1057 15.6311 10.1057 16.0308V18.4431C10.1057 18.8428 9.7817 19.1668 9.38202 19.1668H2.94927C2.54959 19.1668 2.22559 18.8428 2.22559 18.4431V16.0308ZM3.67295 16.7545V17.7194H8.65834V16.7545H3.67295Z" fill="white"/>
<path fill-rule="evenodd" clip-rule="evenodd" d="M6.66406 2.77398C6.66406 2.3743 6.98807 2.05029 7.38775 2.05029H16.8621C17.1317 2.05029 17.3789 2.20014 17.5036 2.43913C17.6284 2.67812 17.6099 2.96664 17.4558 3.1878L15.4438 6.07426L17.4558 8.96073C17.6099 9.18189 17.6284 9.4704 17.5036 9.70939C17.3789 9.94839 17.1317 10.0982 16.8621 10.0982H7.38775C6.98807 10.0982 6.66406 9.77423 6.66406 9.37455V2.77398ZM8.11143 3.49766V8.65086H15.4755L13.968 6.48809C13.7947 6.23943 13.7947 5.9091 13.968 5.66044L15.4755 3.49766H8.11143Z" fill="white"/>
</svg>
