<svg width="11" height="11" viewBox="0 0 11 11" fill="none" xmlns="http://www.w3.org/2000/svg">
<path d="M5.78033 1.28033C6.07322 0.987436 6.07322 0.512564 5.78033 0.21967C5.48744 -0.0732232 5.01256 -0.0732232 4.71967 0.21967L0.219671 4.71967C-0.0732226 5.01256 -0.0732227 5.48744 0.219671 5.78033L4.71967 10.2803C5.01256 10.5732 5.48744 10.5732 5.78033 10.2803C6.07322 9.98744 6.07322 9.51256 5.78033 9.21967L1.81066 5.25L5.78033 1.28033Z" fill="#74777A"/>
<path d="M10.7803 1.28033C11.0732 0.987436 11.0732 0.512564 10.7803 0.21967C10.4874 -0.0732232 10.0126 -0.0732232 9.71967 0.21967L5.21967 4.71967C4.92678 5.01256 4.92678 5.48744 5.21967 5.78033L9.71967 10.2803C10.0126 10.5732 10.4874 10.5732 10.7803 10.2803C11.0732 9.98744 11.0732 9.51256 10.7803 9.21967L6.81066 5.25L10.7803 1.28033Z" fill="#74777A"/>
</svg>
