<svg width="147" height="19" viewBox="0 0 147 19" fill="none" xmlns="http://www.w3.org/2000/svg">
<path d="M20.5089 2.28388L19.5177 1.25391H17.6298L12.1826 17.9008L12.8489 18.5932H14.934L16.3416 14.3118L16.3888 14.1733H16.5304H21.3418H21.4834L21.5278 14.3147L21.5417 14.355L22.8854 18.5932H24.9843L25.6507 17.9008L20.5089 2.28388ZM20.5172 11.4296H17.3133H17.0357L17.1245 11.1555L17.1523 11.0689L18.7265 6.21336L18.9152 5.63345L19.104 6.21336L20.706 11.1555L20.7948 11.4267H20.5172V11.4296Z" fill="#003DA5"/>
<path d="M1.19105 1.25391L0 2.4916V18.5932H3.10118V11.3776V11.1699H3.2983H10.1003V9.45618L9.10918 8.42621H3.2983H3.10118V8.21848V4.20534V3.99762H3.2983H10.7139V1.25391H1.19105Z" fill="#003DA5"/>
<path d="M30.151 13.048H28.0798C28.1881 13.9741 28.3797 14.7905 28.6545 15.4801C28.9655 16.2648 29.3764 16.9226 29.8789 17.4333C30.3759 17.941 30.9645 18.3219 31.628 18.5671C32.3027 18.8152 33.0523 18.9422 33.8574 18.9422C34.7514 18.9422 35.576 18.8239 36.3117 18.5931C37.0335 18.3652 37.6582 18.0305 38.1718 17.5977C38.6744 17.1707 39.0714 16.6341 39.349 15.9994C39.6266 15.3618 39.7682 14.6117 39.7682 13.7721C39.7682 12.9874 39.6183 12.3123 39.3185 11.767C39.0131 11.2073 38.5938 10.7168 38.0747 10.3129C37.5416 9.89745 36.9086 9.53393 36.2006 9.23388C35.4816 8.92807 34.7042 8.64821 33.8879 8.40298C33.2272 8.19526 32.6969 7.92694 32.3082 7.6067C31.8612 7.23741 31.6363 6.70944 31.6363 6.03722C31.6363 5.3448 31.8168 4.7649 32.1694 4.30906C32.5386 3.8359 33.1633 3.59356 34.024 3.59356C34.7542 3.59356 35.3733 3.83013 35.8591 4.29752C36.2895 4.71297 36.5754 5.3823 36.7115 6.28245H39.5406C39.4212 5.36499 39.2074 4.58602 38.902 3.95996C38.5522 3.24158 38.1246 2.65879 37.6332 2.22891C37.1418 1.80192 36.5865 1.4961 35.9785 1.323C35.3511 1.14412 34.7014 1.05469 34.0434 1.05469C33.2827 1.05469 32.5581 1.16144 31.889 1.37205C31.2338 1.57977 30.6591 1.89713 30.1815 2.32124C29.704 2.73957 29.3236 3.27331 29.046 3.91091C28.7684 4.54852 28.6268 5.31306 28.6268 6.17859C28.6268 7.05276 28.8072 7.79711 29.1654 8.38567C29.5374 9.00019 30.0094 9.52528 30.5674 9.9465C31.1394 10.3764 31.7668 10.7284 32.4304 10.9938C33.1161 11.2679 33.7658 11.5044 34.3627 11.6949C35.0485 11.9141 35.6148 12.1795 36.0424 12.4854C36.5505 12.846 36.8087 13.322 36.8087 13.8933C36.8087 14.3693 36.7198 14.7675 36.5477 15.0791C36.3728 15.3935 36.1368 15.633 35.8508 15.8003C35.5843 15.9532 35.2678 16.06 34.9124 16.1148C34.5793 16.1667 34.2322 16.1927 33.8768 16.1927C32.9246 16.1927 32.211 15.8724 31.7502 15.2377C31.4781 14.8627 31.2782 14.378 31.1449 13.7981L30.151 13.048Z" fill="#003DA5"/>
<path d="M55.1909 6.62316C55.1853 6.60296 55.1826 6.58276 55.177 6.56257C54.9077 5.48932 54.4996 4.53147 53.9637 3.71211C53.4362 2.90718 52.7588 2.25803 51.9481 1.78199C51.143 1.31173 50.1824 1.07227 49.0885 1.07227C47.9946 1.07227 47.034 1.31173 46.2261 1.78199C45.4182 2.25803 44.7407 2.90718 44.2132 3.71211C43.6774 4.53147 43.2693 5.49221 43 6.56257C42.9944 6.58276 42.9916 6.60296 42.9861 6.62316V13.3858C42.9916 13.406 42.9944 13.4262 43 13.4464C43.2665 14.511 43.6746 15.4659 44.2132 16.2882C44.7407 17.0931 45.4182 17.7422 46.2289 18.2183C47.034 18.6886 47.9974 18.928 49.0885 18.928C50.1824 18.928 51.1458 18.6886 51.9509 18.2183C52.7588 17.7422 53.439 17.0931 53.9665 16.2882C54.5024 15.4717 54.9105 14.5138 55.1798 13.4464C55.1853 13.4262 55.1881 13.406 55.1937 13.3887V6.62316H55.1909ZM52.5006 12.0356C52.4201 12.7338 52.2591 13.3714 52.0259 13.9339C51.7788 14.5254 51.4206 15.0187 50.9542 15.4024C50.4711 15.7977 49.8437 15.9997 49.0885 15.9997C48.3194 15.9997 47.692 15.7977 47.22 15.3996C46.7675 15.0187 46.4121 14.5254 46.1622 13.9397C45.9207 13.3714 45.7597 12.728 45.6875 12.0327C45.6153 11.3605 45.5792 10.6853 45.5792 10.0333C45.5792 9.3784 45.6153 8.70041 45.6847 8.01376C45.7569 7.30403 45.9179 6.65201 46.1594 6.07788C46.4093 5.48355 46.7675 4.98732 47.2172 4.6036C47.6892 4.20546 48.3194 4.0035 49.0857 4.0035C49.8409 4.0035 50.4683 4.20546 50.9514 4.60072C51.4178 4.98443 51.7788 5.48355 52.0231 6.08076C52.2563 6.65201 52.4173 7.30115 52.4978 8.00799C52.5756 8.69176 52.6144 9.37263 52.6144 10.0304C52.6172 10.6911 52.5784 11.3662 52.5006 12.0356Z" fill="#003DA5"/>
<path d="M70.7578 6.62316C70.7522 6.60296 70.7495 6.58276 70.7439 6.56257C70.4746 5.48932 70.0665 4.53147 69.5306 3.71211C69.0031 2.90718 68.3257 2.25803 67.515 1.78199C66.7099 1.31173 65.7493 1.07227 64.6554 1.07227C63.5615 1.07227 62.6009 1.31173 61.793 1.78199C60.9851 2.25803 60.3076 2.90718 59.7801 3.71211C59.2443 4.53147 58.8362 5.49221 58.5669 6.56257C58.5613 6.58276 58.5585 6.60296 58.553 6.62316V13.3858C58.5585 13.406 58.5613 13.4262 58.5669 13.4464C58.8334 14.511 59.2415 15.4659 59.7801 16.2882C60.3076 17.0931 60.9851 17.7422 61.7957 18.2183C62.6009 18.6886 63.5643 18.928 64.6554 18.928C65.7493 18.928 66.7127 18.6886 67.5178 18.2183C68.3257 17.7422 69.0059 17.0931 69.5334 16.2882C70.0693 15.4717 70.4774 14.5138 70.7467 13.4464C70.7522 13.4262 70.755 13.406 70.7606 13.3887V6.62316H70.7578ZM68.0703 12.0356C67.9898 12.7338 67.8287 13.3714 67.5955 13.9339C67.3484 14.5254 66.9903 15.0187 66.5239 15.4024C66.0408 15.7977 65.4133 15.9997 64.6582 15.9997C63.8891 15.9997 63.2617 15.7977 62.7897 15.3996C62.3371 15.0187 61.9818 14.5254 61.7319 13.9397C61.4904 13.3714 61.3293 12.728 61.2571 12.0327C61.185 11.3605 61.1489 10.6853 61.1489 10.0333C61.1489 9.3784 61.185 8.70041 61.2544 8.01376C61.3265 7.30403 61.4876 6.65201 61.7291 6.07788C61.979 5.48355 62.3371 4.98732 62.7869 4.6036C63.2589 4.20546 63.8891 4.0035 64.6554 4.0035C65.4105 4.0035 66.038 4.20546 66.5211 4.60072C66.9875 4.98443 67.3484 5.48355 67.5928 6.08076C67.826 6.65201 67.987 7.30115 68.0675 8.00799C68.1452 8.69176 68.1841 9.37263 68.1841 10.0304C68.1841 10.6911 68.1452 11.3662 68.0703 12.0356Z" fill="#003DA5"/>
<path d="M83.24 6.92C83.24 5.624 84.122 4.868 85.346 4.868C86.57 4.868 87.47 5.624 87.47 6.92C87.47 8.198 86.57 8.972 85.346 8.972C84.122 8.972 83.24 8.198 83.24 6.92ZM92.258 6.02V7.82H89.612C89.684 7.514 89.72 7.226 89.72 6.92C89.72 6.596 89.684 6.308 89.63 6.02H92.258ZM92.258 9.71V11.69H94.634V1.97H92.258V4.13H88.604C87.812 3.338 86.678 2.852 85.346 2.852C82.898 2.852 80.99 4.562 80.99 6.92C80.99 9.26 82.898 10.97 85.346 10.97C86.642 10.97 87.776 10.502 88.568 9.71H92.258ZM89.018 16.73C86.84 16.73 85.688 16.262 85.688 15.29C85.688 14.318 86.84 13.85 89.018 13.85C91.196 13.85 92.366 14.318 92.366 15.29C92.366 16.262 91.196 16.73 89.018 16.73ZM89.018 12.014C85.526 12.014 83.348 13.22 83.348 15.29C83.348 17.342 85.526 18.566 89.018 18.566C92.528 18.566 94.706 17.342 94.706 15.29C94.706 13.22 92.528 12.014 89.018 12.014ZM108.835 16.478H102.571V14.984H108.835V16.478ZM108.835 13.184H102.571V11.6H100.213V18.35H111.193V11.6H108.835V13.184ZM101.905 8.594C100.699 8.594 99.8166 7.856 99.8166 6.614C99.8166 5.372 100.699 4.634 101.905 4.634C103.129 4.634 104.011 5.372 104.011 6.614C104.011 7.856 103.129 8.594 101.905 8.594ZM108.817 1.97V5.624H106.171C105.703 3.86 104.011 2.654 101.905 2.654C99.4206 2.654 97.5486 4.31 97.5486 6.614C97.5486 8.918 99.4206 10.574 101.905 10.574C104.047 10.574 105.739 9.35 106.189 7.55H108.817V10.88H111.193V1.97H108.817ZM125.375 14.606H127.751V1.97H125.375V6.092H123.215V7.982H125.375V9.638H123.215V11.528H125.375V14.606ZM123.035 3.716H119.795V1.916H117.419V3.716H113.945V5.57H123.035V3.716ZM116.951 9.404C116.951 8.504 117.635 7.982 118.607 7.982C119.561 7.982 120.245 8.504 120.245 9.404C120.245 10.34 119.561 10.844 118.607 10.844C117.635 10.844 116.951 10.34 116.951 9.404ZM122.477 9.404C122.477 7.496 120.857 6.164 118.607 6.164C116.339 6.164 114.719 7.496 114.719 9.404C114.719 11.33 116.339 12.68 118.607 12.68C120.857 12.68 122.477 11.33 122.477 9.404ZM119.183 16.37V13.58H116.807V18.26H128.111V16.37H119.183ZM140.08 3.158H136.57V1.844H134.194V3.158H130.666V4.868H140.08V3.158ZM133.582 7.658C133.582 7.1 134.248 6.812 135.382 6.812C136.516 6.812 137.164 7.1 137.164 7.658C137.164 8.216 136.516 8.486 135.382 8.486C134.248 8.486 133.582 8.216 133.582 7.658ZM140.494 10.484C139.234 10.646 137.92 10.736 136.57 10.808V9.944C138.334 9.692 139.414 8.864 139.414 7.658C139.414 6.164 137.83 5.282 135.382 5.282C132.916 5.282 131.332 6.164 131.332 7.658C131.332 8.882 132.412 9.692 134.194 9.962V10.898C132.772 10.934 131.44 10.934 130.252 10.934L130.504 12.734C133.402 12.734 137.2 12.698 140.656 12.068L140.494 10.484ZM138.028 16.856C135.796 16.856 134.788 16.586 134.788 15.956C134.788 15.326 135.796 15.038 138.046 15.038C140.296 15.038 141.304 15.326 141.304 15.956C141.304 16.586 140.296 16.856 138.028 16.856ZM138.046 13.328C134.482 13.328 132.394 14.246 132.394 15.956C132.394 17.666 134.482 18.584 138.046 18.584C141.61 18.584 143.698 17.666 143.698 15.956C143.698 14.246 141.61 13.328 138.046 13.328ZM143.59 6.668V1.97H141.214V13.148H143.59V8.63H145.678V6.668H143.59Z" fill="#0D1C28"/>
</svg>
